<?xml version="1.0" encoding="UTF-8"?>
<svg id="Calque_2" data-name="Calque 2" xmlns="http://www.w3.org/2000/svg" width="40" height="40" viewBox="0 0 42 29.88">
  <defs>
    <style>
      .cls-1, .cls-2 {
        fill: #fff;
      }

      .cls-2, .cls-3 {
        fill-rule: evenodd;
      }
    </style>
  </defs>
  <g id="Calque_1-2" data-name="Calque 1">
    <g>
      <g>
        <path class="cls-3" d="m29.18.57H4.05C2.95.57,1.66,1.78,1.66,2.91v16.9c0,1.14,1.3,1.76,2.39,1.76h25.13c1.1,0,2.32-.62,2.32-1.76V2.91c0-1.13-1.22-2.34-2.32-2.34Z"/>
        <g>
          <path class="cls-2" d="m3.01,0C1.31,0,0,1.45,0,3.12v16.49c0,1.68,1.31,3.11,3.01,3.11h27.29c1.7,0,3.01-1.44,3.01-3.11V3.12c0-1.67-1.31-3.12-3.01-3.12H3.01Zm0,2.42h27.29c.37,0,.59.36.59.7v16.49c0,.34-.23.7-.59.7H3.01c-.37,0-.59-.36-.59-.7V3.12c0-.34.23-.7.59-.7Z"/>
          <rect class="cls-1" x="1.27" y="5.34" width="30.77" height="2.73"/>
        </g>
      </g>
      <g>
        <path class="cls-2" d="m37.82,26.96c-.23,1.37-1.52,2.28-2.89,2.05l-24.68-4.17c-1.36-.23-2.28-1.52-2.05-2.88l2.71-16.05c.23-1.36,1.52-2.28,2.89-2.05l24.69,4.17c1.36.23,2.28,1.52,2.05,2.88l-2.71,16.05Z"/>
        <g>
          <path d="m12.6,2.9c-1.67-.28-3.21.92-3.49,2.57l-2.74,16.26c-.28,1.64.78,3.29,2.45,3.57l26.91,4.54c1.67.28,3.21-.93,3.49-2.57l2.74-16.26c.28-1.65-.78-3.29-2.45-3.57L12.6,2.9h0Zm-.4,2.38l26.91,4.54c.36.06.52.45.47.78l-2.74,16.26c-.05.33-.34.65-.7.59l-26.91-4.54c-.36-.06-.52-.45-.47-.79l2.74-16.26c.06-.33.34-.65.7-.59Z"/>
          <rect x="23.57" y="-3.61" width="2.73" height="30.77" transform="translate(9.17 34.41) rotate(-80.42)"/>
        </g>
      </g>
    </g>
  </g>
</svg>