<?xml version="1.0" encoding="UTF-8"?>
<svg id="Calque_2" data-name="Calque 2" xmlns="http://www.w3.org/2000/svg" width="40" height="40" viewBox="0 0 34.23 23.34">
  <g id="Calque_1-2" data-name="Calque 1">
    <g>
      <path d="m3.09,0C1.35,0,0,1.48,0,3.2v16.94c0,1.71,1.35,3.2,3.09,3.2h28.04c1.74,0,3.09-1.48,3.09-3.2V3.2c0-1.72-1.35-3.2-3.09-3.2H3.09Zm0,2.48h28.04c.38,0,.61.37.61.72v16.94c0,.35-.23.72-.61.72H3.09c-.38,0-.61-.37-.61-.72V3.2c0-.35.23-.72.61-.72Z"/>
      <rect x="1.3" y="5.49" width="31.62" height="2.81"/>
    </g>
  </g>
</svg>