<?xml version="1.0" encoding="UTF-8"?>
<svg id="Calque_2" data-name="Calque 2" xmlns="http://www.w3.org/2000/svg" width="40" height="40" viewBox="0 0 37.9 33.72">
  <g id="Calque_1-2" data-name="Calque 1">
    <path d="m1.29,0C.58,0,0,.58,0,1.29v16.37c0,.71.58,1.29,1.29,1.29h5.71V2.41h2.06v30.02c0,.71.58,1.29,1.29,1.29h17.19c.71,0,1.29-.58,1.29-1.29V2.41h2.06v16.54h5.72c.71,0,1.29-.58,1.29-1.29V1.29c0-.71-.58-1.29-1.29-1.29H1.29Zm17.66,18.98c-2.35,0-4.25-1.9-4.25-4.25s1.9-4.25,4.25-4.25,4.25,1.9,4.25,4.25-1.9,4.25-4.25,4.25h0Zm1.03,4.25v4.25c0,.57-.46,1.03-1.03,1.03s-1.03-.46-1.03-1.03v-4.25c0-.57.46-1.03,1.03-1.03s1.03.46,1.03,1.03h0Zm0-17.02c0,.57-.46,1.03-1.03,1.03s-1.03-.46-1.03-1.03v-3.8h2.06v3.8Zm7.15,21.53c0,.25-.09.5-.26.69l-3.07,3.41c-.2.22-.47.34-.77.34h-8.17c-.29,0-.57-.12-.77-.34l-3.07-3.41c-.17-.19-.26-.43-.26-.69V2.41h2.06v24.93l2.5,2.78h7.25l2.5-2.78V2.41h2.06v25.33Z"/>
  </g>
</svg>