<?xml version="1.0" encoding="UTF-8"?>
<svg id="Calque_2" data-name="Calque 2" xmlns="http://www.w3.org/2000/svg" width="40" height="40" viewBox="0 0 25 33.48">
  <g id="Calque_1-2" data-name="Calque 1">
    <path d="m0,33.48V0h14.92c1.43,0,2.76.33,3.98,1,1.22.67,2.29,1.54,3.19,2.61.9,1.07,1.61,2.28,2.13,3.62.52,1.34.78,2.67.78,3.98,0,1.38-.24,2.69-.73,3.93-.48,1.24-1.15,2.34-1.99,3.32-.84.98-1.84,1.8-2.98,2.47-1.14.67-2.38,1.14-3.72,1.42-.16.05-.39.09-.69.14-.3.05-.48.07-.52.07h-7.9v10.91H0ZM6.54,6.23v9.97h8.24c.58,0,1.1-.16,1.57-.47.47-.31.87-.71,1.19-1.2.32-.49.58-1.01.76-1.58.19-.57.28-1.1.28-1.61,0-.95-.2-1.82-.61-2.63-.41-.81-1.04-1.45-1.89-1.94-.14-.09-.36-.21-.66-.35-.3-.14-.52-.21-.66-.21H6.54Z"/>
  </g>
</svg>