<?xml version="1.0" encoding="UTF-8"?>
<svg id="Calque_2" data-name="Calque 2" xmlns="http://www.w3.org/2000/svg" width="40" height="40" viewBox="0 0 34 31.39">
  <g id="Calque_1-2" data-name="Calque 1">
    <path d="m4.45,21.35l-.13-.1H1.24l3.37-11.73h-.51l-1.97,6.58c-.15.57-.5.86-1.05.86-.3,0-.55-.08-.76-.26-.21-.17-.32-.42-.32-.77v-.06c.02-.06.05-.2.1-.4.04-.21.06-.32.06-.37l2.16-7.05c.06-.21.19-.44.37-.7.18-.26.38-.49.6-.71.22-.22.46-.41.71-.56.25-.15.5-.22.73-.22h4.83c.21,0,.45.07.72.21.26.14.51.31.74.52.23.21.44.44.62.68.18.24.3.47.36.68l2.32,7.6s.03.04.03.12v.19c0,.32-.1.59-.29.81-.19.22-.44.33-.76.33-.23,0-.45-.09-.65-.25-.2-.17-.32-.37-.37-.6l-2-6.65h-.54l3.37,11.73h-3.11v8.99c0,.25-.12.51-.37.76-.24.25-.49.38-.75.38-.36,0-.62-.06-.78-.19-.16-.13-.34-.32-.56-.57v-9.37h-.7v9.12c0,.25-.13.49-.4.7-.27.21-.52.32-.78.32-.08,0-.2-.02-.33-.06-.14-.04-.28-.1-.41-.16-.14-.06-.25-.14-.35-.24-.09-.09-.14-.2-.14-.3v-9.28Zm.19-18.78c0-.7.26-1.3.76-1.81.51-.51,1.11-.76,1.81-.76s1.31.26,1.78.76c.47.51.7,1.11.7,1.81s-.23,1.32-.7,1.8c-.46.48-1.07.71-1.81.71-.36,0-.69-.07-1-.21-.31-.14-.57-.32-.79-.56-.22-.23-.4-.5-.54-.79-.14-.3-.21-.61-.21-.95ZM16.42.38h2.87v30.76h-2.87V.38Zm8.2,9.47h-.06c-.15,0-.22.02-.22.06v7.56c0,.21-.14.38-.41.49-.28.12-.52.17-.73.17-.17,0-.38-.07-.62-.21-.24-.14-.37-.32-.37-.56v-8.8c0-.25.08-.54.24-.86.16-.32.36-.61.6-.89.24-.28.51-.5.81-.69.29-.18.58-.27.86-.27h6.67c.32,0,.63.09.94.27.31.18.59.41.84.7.26.29.46.6.61.94.15.34.22.66.22.95v8.64c0,.23-.13.42-.38.56-.26.14-.48.21-.67.21-.34,0-.62-.1-.82-.29-.21-.19-.32-.46-.32-.82v-7.18h-.45v20.27c0,.36-.18.64-.54.86-.36.21-.7.32-1.02.32-.36,0-.69-.13-1-.38-.31-.25-.46-.58-.46-.98v-11.79h-.51v11.79c0,.4-.16.73-.46.98-.31.25-.65.38-1.03.38s-.71-.13-1-.38c-.29-.25-.43-.58-.43-.98V9.92s-.03-.06-.1-.06h-.19Zm.95-7.28c0-.7.24-1.3.71-1.81.48-.51,1.06-.76,1.76-.76s1.33.26,1.83.76c.5.51.75,1.11.75,1.81s-.25,1.29-.75,1.78c-.5.49-1.11.73-1.83.73s-1.29-.24-1.76-.73c-.48-.49-.71-1.08-.71-1.78Z"/>
  </g>
</svg>