<?xml version="1.0" encoding="UTF-8"?>
<svg id="Calque_2" data-name="Calque 2" xmlns="http://www.w3.org/2000/svg" width="40" height="40" viewBox="0 0 34 16.37">
  <g id="Calque_1-2" data-name="Calque 1">
    <g>
      <path d="m0,16.37V0h34v16.37H0Zm2.35-2.34h29.31V2.35H2.35v11.68Z"/>
      <path d="m16.45,7.37v-1c-.8.14-.78.99,0,1Zm.55-3.63c-2.46,0-4.45,1.99-4.45,4.45s1.99,4.45,4.45,4.45,4.45-1.99,4.45-4.45-1.99-4.45-4.45-4.45Zm.55,7.26v.8h-1.1v-.8c-.63-.1-1.79-.7-1.86-2.01h1.16c.07.33.17.74.7.88v-1.31c-.73-.11-1.78-.42-1.78-1.59,0-1.31,1.45-1.72,1.78-1.72v-.79h1.09v.79c.74.04,1.8.66,1.8,1.83h-1.15c-.02-.35-.3-.69-.64-.71v1.21c.87.1,1.91.43,1.91,1.6,0,1.03-1.04,1.79-1.91,1.83Zm.01-2.26v1.13c1.08-.15.96-1.11,0-1.13Z"/>
      <path d="m26.51,3.74c-2.46,0-4.45,1.99-4.45,4.45s1.99,4.45,4.45,4.45,4.45-1.99,4.45-4.45-1.99-4.45-4.45-4.45Zm-.45,3.72h1.02v.97h-.83c.1.87-.4,1.24-.43,1.53h2.75v.96h-4.12v-.96c.46-.31.71-1.1.57-1.53h-.86v-.97h.69c-.2-.45-.2-.6-.2-.98s.33-1.66,1.99-1.64c1.53,0,1.98,1.27,1.98,2.17h-1.17c-.08-.55-.29-1-.8-1-.77,0-.77.49-.77.66s.02.57.18.79Z"/>
      <path d="m7.48,3.74c-2.46,0-4.45,1.99-4.45,4.45s1.99,4.45,4.45,4.45,4.45-1.99,4.45-4.45-1.99-4.45-4.45-4.45Zm2,5.13v1.09h-1.38v1.52h-1.18v-1.52h-1.48v-1.07h1.5l-1.95-3.44h1.29l1.2,2.12,1.3-2.12h1.2l-1.93,3.42h1.44Z"/>
    </g>
  </g>
</svg>