<?xml version="1.0" encoding="UTF-8"?>
<svg id="Calque_2" data-name="Calque 2" xmlns="http://www.w3.org/2000/svg" width="40" height="40" viewBox="0 0 34 23.73">
  <g id="Calque_1-2" data-name="Calque 1">
    <g>
      <path d="m0,11.85c0-.71,0-1.43,0-2.15.02-1.6.62-2.93,1.82-3.99.75-.66,1.63-1.06,2.62-1.22.28-.05.57-.06.86-.06.78,0,1.54,0,2.32,0,.09,0,.15-.03.21-.1,1.74-2.09,3.93-3.45,6.59-4.05,1.12-.25,2.26-.34,3.4-.25,2.13.15,4.08.83,5.85,2.03.76.51,1.45,1.12,2.08,1.79.14.16.29.33.44.51.04.06.1.08.17.08.85,0,1.69,0,2.55,0,1.14.02,2.17.4,3.08,1.11,1,.79,1.64,1.81,1.91,3.07.07.35.1.71.1,1.06.02,1.45.02,2.9,0,4.34,0,1.55-.57,2.85-1.71,3.9-.86.78-1.87,1.24-3.03,1.34-.19.03-.39.03-.58.03h-2.29c-.1,0-.17.03-.23.11-.82.99-1.77,1.84-2.86,2.51-1.34.84-2.79,1.39-4.35,1.66-.93.14-1.85.2-2.78.13-1.96-.15-3.79-.73-5.46-1.79-1.1-.68-2.05-1.53-2.87-2.52-.06-.07-.12-.1-.2-.1-.85,0-1.68.01-2.52,0-1.15-.03-2.18-.4-3.09-1.12-1.05-.83-1.7-1.9-1.93-3.21-.05-.28-.08-.55-.08-.84-.01-.75,0-1.51,0-2.27Zm15.74,6.01h0c4.29,0,8.59,0,12.88,0,.3,0,.6-.01.88-.07.91-.2,1.66-.66,2.24-1.39.53-.7.81-1.49.8-2.37,0-1.45,0-2.88,0-4.32,0-.94-.28-1.76-.88-2.47-.78-.91-1.78-1.38-2.98-1.38-2.34,0-4.68,0-7.02,0-.3,0-.62.02-.91.06-.97.14-1.69.64-2.13,1.54-.36.72-.48,1.5-.53,2.3-.03.76-.03,1.54-.05,2.31-.02.97.01,1.93-.1,2.89-.06.46-.15.92-.32,1.35-.27.7-.75,1.22-1.5,1.44-.13.03-.27.07-.4.1Zm-10.15-5.38h-.03c-.17-1.39-.34-2.78-.51-4.19-.72.01-1.43.03-2.14.05,0,.05,0,.07.01.1.58,2.42,1.14,4.85,1.71,7.27.02.09.06.11.14.11.52,0,1.05,0,1.57,0,.11,0,.14-.02.16-.13.26-1.19.52-2.38.78-3.58.04-.2.08-.39.13-.59.02.03.03.05.04.07.25,1.38.51,2.75.76,4.12.01.09.04.11.12.1.41,0,.81,0,1.21,0h.65c.6-2.49,1.2-4.97,1.81-7.46h-2.11c-.22,1.42-.43,2.83-.65,4.23,0,0-.02,0-.02,0-.28-1.41-.56-2.82-.84-4.23h-1.91c-.3,1.38-.59,2.76-.88,4.13Zm9.25,3.32v-5.46h-1.89v5.46h1.89Zm-1.12-5.94c.4,0,.67-.08.89-.28.42-.34.45-.92.1-1.31-.46-.51-1.36-.49-1.79.04-.28.34-.28.8,0,1.14.23.28.55.41.8.41Z"/>
      <path d="m26.41,11.87v1.65h-3.99v2.28h-2.04v-7.4h6.4v1.69h-4.36s0,.08,0,.12c0,.51,0,1.02,0,1.53,0,.11.04.13.14.13,1.23,0,2.46,0,3.69,0h.17Z"/>
      <path d="m27.91,15.8v-5.45h1.89v5.45h-1.89Z"/>
      <path d="m28.77,9.86c-.25,0-.48-.08-.7-.22-.53-.39-.53-1.12.02-1.51.42-.29,1-.29,1.41,0,.53.4.53,1.12-.01,1.51-.22.15-.45.22-.72.22Z"/>
    </g>
  </g>
</svg>