<svg xmlns="http://www.w3.org/2000/svg" viewBox="0 0 230.21 133.2"><defs><style>.cls-1{fill:#004996;}.cls-2{fill:#d9a700;}.cls-3{fill:#fff;}</style></defs><g id="Calque_2" data-name="Calque 2"><g id="Calque_1-2" data-name="Calque 1"><path class="cls-1" d="M91.15,108.17V73.88H59V84.5c-16.31-.31-24.05-8.66-24.05-26.16,0-13,5.83-25.78,24.05-26.15V42.9H91.15V8.5H54.09C15.5,8.5,0,36.56,0,59.66c0,22.66,13.88,48.53,47.8,48.53H91.14v0Z"/><polygon class="cls-1" points="91.15 133.2 161.04 133.2 161.06 108.36 91.15 108.39 91.15 133.2"/><polygon class="cls-1" points="91.26 8.28 126.15 8.28 126.16 0 91.26 0.01 91.26 8.28"/><path class="cls-2" d="M176.13,8.5h-50v76h34.94v23.68l21.34,0c33.92,0,47.81-25.87,47.81-48.53C230.21,36.56,214.71,8.5,176.13,8.5Zm-5.86,76h-9.21V32.18h9.37c18.85,0,24.84,13,24.84,26.16C195.27,76.18,187.24,84.51,170.27,84.51Z"/><path class="cls-3" d="M113.32,127.25a8.12,8.12,0,0,1-3.74.84c-4.29,0-5.44-4.13-5.44-7.58,0-3.66,1.28-7.05,5.34-7.05,2.82,0,4.38,1.79,4.38,4.09h-1.81a2.5,2.5,0,0,0-2.57-2.76c-3,0-3.58,3.08-3.58,5.8,0,2.36.58,6.17,4.06,6.17a5.44,5.44,0,0,0,3.36-1.17Z"/><path class="cls-3" d="M123.05,113.69h1.59v12.84h5.07v1.33h-6.66Z"/><path class="cls-3" d="M140.18,115h.89c2.78,0,4.75.62,4.75,5.73,0,5-1.81,5.78-4.56,5.78h-1.08Zm-1.59,12.84h2.65c3.35,0,6.34-.84,6.34-7.13,0-4.5-1.57-7-5.83-7h-3.16Z"/></g></g></svg>