<svg xmlns="http://www.w3.org/2000/svg" viewBox="0 0 279.57 57.76"><defs><style>.cls-1{fill:#00a564;}.cls-2{fill:#fff;}</style></defs><g id="Calque_2" data-name="Calque 2"><g id="Calque_1-2" data-name="Calque 1"><rect class="cls-1" width="57.76" height="57.76"/><path class="cls-2" d="M49.52,17V40.8L28.88,52.71,8.25,40.8V17L28.88,5.06,49.52,17M28.88,7.19,10.09,18v21.7L28.88,50.58,47.67,39.73V18L28.88,7.19M26.3,17.61l-2.94,1.7v3.41l2.94,1.69,1.85-1.06L27,22.72V19.31l1.11-.64L26.3,17.61m4.43.85v4.26L38.09,27v5.1L33.3,34.84l-2.57-1.49v5.53L26.3,41.43H30l4.42-2.55V35.05h2.21l5.16-3V27l-7.37-4.25V18.46L30,15.91H26.3l4.43,2.55M27,25.69v3.83l6.26,3.62,1.85-1.07-4.42-2.55V25.69l1.1-.64L30,24,27,25.69M16,27.82v3.83l3,1.7,1.84-1.06-1.11-.64V27.82l4.79-2.77L22.62,24,16,27.82m7.37,4.68v1.7l4.42-2.55L26.3,30.8l-2.94,1.7m0,3.4V38l5.89-3.4V32.5l-5.89,3.4m1.47,3,1.47.85L29.25,38v-1.7l-4.42,2.55m-2.95-5.53-2.94,1.7h2.94Z"/><path class="cls-1" d="M80.75,42c-.09-4-.09-7.88-.09-11.57,0-5.18,0-10.07.18-14.65,1.45,0,2.53-.09,3.13-.09,8.55,0,12.25,3.64,12.25,12.92,0,9.1-4.16,13.67-12.29,13.67A20.05,20.05,0,0,1,80.75,42M73.24,44.8c1,0,2.1-.1,3.36-.1,2.14,0,4.76.14,7.93.14,12.76,0,19.2-5.6,19.2-16.7,0-5.32-1.92-9.66-5.23-12.27-3.08-2.43-6.86-2.95-12.1-2.95-3.31,0-6.49.19-9.52.19-1.17,0-2.34,0-3.64-.14a119,119,0,0,1,.51,13.4V33A91.13,91.13,0,0,1,73.24,44.8Z"/><path class="cls-1" d="M113,31.5v-.42c0-4.67,1.63-7.1,4.28-7.1,2.38,0,3.63,2.15,3.63,6.4,0,.28,0,.65,0,1.12H113m0,2.26h14.26c0-.51,0-1,0-1.48,0-6.66-3.54-10.31-9.92-10.31-6.89,0-11.17,4.77-11.17,11.38,0,7.5,4.32,12,11.58,12a13.37,13.37,0,0,0,7.69-2.11l1-2.65-.47-.33a9.3,9.3,0,0,1-6,2.18C115.81,42.47,113,39.23,113,33.76Z"/><path class="cls-1" d="M131.51,38.45c1,3.07,3.26,4.8,6,4.8,2.23,0,3.48-1.17,3.48-3.13s-2-2.7-5.44-4.14c-3.77-1.59-5.64-3.13-5.64-6.39,0-4.47,3.27-7.57,8.53-7.57A12.58,12.58,0,0,1,145.17,24a18.27,18.27,0,0,0-1.36,4.37h-.47c-1.36-2.84-3.17-4.28-5.5-4.28-2,0-3.35,1.26-3.35,2.89,0,1.81,1.35,2.42,4,3.45,4.89,1.91,7.61,3,7.61,7.12,0,4.66-3.51,7.93-8.87,7.93a12.09,12.09,0,0,1-6.95-1.82c.15-.93.33-2.66.61-5.17Z"/><path class="cls-1" d="M153.29,22.75a26.72,26.72,0,0,0,3.34-.19c-.14,2.34-.18,4.3-.18,6,0,11.41.23,16,.23,17.08,0,6.89-3.21,10-10.75,10.24l-.47-1.44c4.85-.28,5.13-3.72,5.13-12,0-11.54-.19-17.08-.51-19.84a24.69,24.69,0,0,0,3.21.19m.28-10.2a3.81,3.81,0,0,1,0,7.61,3.81,3.81,0,1,1,0-7.61Z"/><path class="cls-1" d="M172.72,32.56V38c0,2.89-1.21,4.33-3.22,4.33s-2.9-1.35-2.9-4c0-3.26,1.87-4.89,6.12-5.72m.19,9.31a4,4,0,0,0,4.21,3.37,13.26,13.26,0,0,0,4.9-1V43h-.15c-2.75,0-3.07-1.17-3.07-4.48v-.88l.14-8.11v-.23c0-4.79-3.09-7.44-8.7-7.44-2.94,0-5.6,1.16-8.31,3.53.42,1.07.74,2.09,1,3,1.44-2.42,3.13-3.59,5.23-3.59a4.24,4.24,0,0,1,4.44,4.61,4.52,4.52,0,0,1,0,.8c-1.87,1.25-4.49,1.77-7.38,2.74-3.32,1.12-4.91,2.94-4.91,5.92,0,4,2.38,6.49,6.31,6.49A7,7,0,0,0,172.91,41.87Z"/><path class="cls-1" d="M184.52,33.66c0-4.33,0-8-.32-11.14a24.89,24.89,0,0,0,3.25.19,24.69,24.69,0,0,0,3.21-.19c-.14,2.43-.23,4.43-.23,6h.23c1.12-4.29,3.6-6.53,7.19-6.53h.23a21.16,21.16,0,0,0-.28,3.36,22.94,22.94,0,0,0,.28,3.5,9,9,0,0,0-3-.7c-3.17,0-4.39,2.14-4.39,6.61,0,4.1.19,7.49.42,10.11a27.73,27.73,0,0,0-3.44-.23,28.39,28.39,0,0,0-3.44.23C184.43,41.53,184.52,37.8,184.52,33.66Z"/><path class="cls-1" d="M211.07,24.88c2.9,0,4.3,3,4.3,9,0,5.69-1.64,8.63-4.54,8.63-3.23,0-4.45-2.7-4.45-8.3,0-6.35,1.31-9.34,4.69-9.34m4.35,20a20.54,20.54,0,0,1,3.31-.28,20,20,0,0,1,3.27.28c-.28-4.32-.42-10.11-.42-17.3,0-6.61,0-9.71.42-14.91a29.06,29.06,0,0,1-3.45.19,28.66,28.66,0,0,1-3.46-.19c.19,3.14.24,3.42.24,6.56V25a7.41,7.41,0,0,0-6.18-3c-5.84,0-9.56,4.37-9.56,12s3.12,11.5,9.23,11.5a6.91,6.91,0,0,0,6.69-3.76C215.51,42.76,215.51,43.82,215.42,44.84Z"/><path class="cls-1" d="M227.17,33.73c0-4-.13-7.71-.37-11.17a29.32,29.32,0,0,0,3.5.19,28.16,28.16,0,0,0,3.49-.19c-.24,3.46-.37,7.17-.37,11.17,0,3.62.13,7.29.37,11.11a28,28,0,0,0-3.49-.23,29.38,29.38,0,0,0-3.5.23c.24-3.82.37-7.49.37-11.11m3.31-21.32A3.53,3.53,0,1,1,226.94,16,3.5,3.5,0,0,1,230.48,12.41Z"/><path class="cls-1" d="M239.08,33.72c0-4-.14-7.71-.37-11.17a25,25,0,0,0,3.23.19,23.08,23.08,0,0,0,3.13-.19v3.27a8.57,8.57,0,0,1,7.19-3.73,7.12,7.12,0,0,1,5.51,2.28c1.4,1.64,1.45,3.82,1.45,6.8,0,1.25-.05,3.2-.05,5.81s.09,5.29.32,7.86a29.24,29.24,0,0,0-3.5-.23,28.69,28.69,0,0,0-3.45.23c.23-2.52.37-6.14.37-10.84,0-5.48-.32-8-3.73-8-3,0-4,2.51-4,7.67,0,2.6.09,6.32.33,11.16a28,28,0,0,0-3.41-.23,27.4,27.4,0,0,0-3.42.23C238.94,41,239.08,37.35,239.08,33.72Z"/><path class="cls-1" d="M265,38.45c1,3.07,3.27,4.8,6,4.8,2.24,0,3.49-1.17,3.49-3.13s-2-2.7-5.44-4.14c-3.78-1.59-5.65-3.13-5.65-6.39,0-4.47,3.28-7.57,8.54-7.57A12.58,12.58,0,0,1,278.69,24a18.27,18.27,0,0,0-1.36,4.37h-.47c-1.36-2.84-3.18-4.28-5.5-4.28-2,0-3.35,1.26-3.35,2.89,0,1.81,1.35,2.42,4,3.45,4.89,1.91,7.6,3,7.6,7.12,0,4.66-3.5,7.93-8.86,7.93a12.09,12.09,0,0,1-6.95-1.82c.14-.93.33-2.66.61-5.17Z"/></g></g></svg>