<svg xmlns="http://www.w3.org/2000/svg" viewBox="0 0 260.48 62.33"><defs><style>.cls-1,.cls-2{fill:#231f20;}.cls-2,.cls-4{fill-rule:evenodd;}.cls-3{fill:#026db1;}.cls-4{fill:#fff;}</style></defs><g id="Calque_2" data-name="Calque 2"><g id="Calque_1-2" data-name="Calque 1"><path class="cls-1" d="M104.69,50.47V34.11h-.13c-.58.53-2.73.57-3.64.57H99.34v.14c1.82,1.12,1.57,2.78,1.57,4.84v6.93c0,3.46-3.4,5.89-6.14,5.89-3.62,0-5.12-2.57-5.12-6.7V34.11h-.12c-.58.53-2.75.57-3.66.57H84.31v.14c1.83,1.12,1.58,2.78,1.58,4.84v6.9c0,6.32,2.74,9.32,7.64,9.32,2.9,0,5.89-1,7.39-3.49v3h5.34v-.13c-1.83-1-1.57-2.7-1.57-4.77"/><path class="cls-1" d="M113,41.72a5.26,5.26,0,0,1,5.36-4.59c3,0,4.9,1.47,5.35,4.59H113m15.08,2.61c.16-5.77-3.7-10.13-9.35-10.13-6.19,0-10.38,4.49-10.38,10.72s4.85,11,11.92,11A14.07,14.07,0,0,0,126,54.86l2.08-4.21h-.13A10.39,10.39,0,0,1,121.12,53c-4.69,0-8.22-3.2-8.31-8.71Z"/><path class="cls-1" d="M131.35,24.6c1,0,3-.06,3.64-.66h.12V52.28a12.91,12.91,0,0,0,3.43.53c4.54,0,7.14-3.17,7.14-7.6s-2-7.69-6.19-7.69a6.67,6.67,0,0,0-3.47,1l2.23-3.82a8.43,8.43,0,0,1,2.93-.49c4.71,0,8.7,4.08,8.7,10.2,0,7-4.74,11.56-12.25,11.56a47.56,47.56,0,0,1-7.53-.81V55c1.37-.63,1.24-2.12,1.24-3.6V30.82c0-2.06.25-5-1.53-6.09V24.6h1.54"/><path class="cls-1" d="M157.26,41.72a5.26,5.26,0,0,1,5.36-4.59c3,0,4.9,1.47,5.35,4.59H157.26m15.07,2.61c.18-5.77-3.69-10.13-9.34-10.13-6.19,0-10.38,4.49-10.38,10.72s4.86,11,11.91,11a14.09,14.09,0,0,0,5.74-1.11l2.07-4.21h-.12A10.41,10.41,0,0,1,165.4,53c-4.7,0-8.23-3.2-8.31-8.71Z"/><path class="cls-1" d="M190.91,39.33h-.12a6.59,6.59,0,0,0-5.07-2.2c-4,0-6.94,3.06-6.94,7.32A8.44,8.44,0,0,0,187.42,53a10.21,10.21,0,0,0,6.06-2.2h.13l-2.16,4.24A14.56,14.56,0,0,1,186,56c-6.4,0-11.4-4.5-11.4-10.34,0-7.74,5.59-11.43,11.85-11.43a18.82,18.82,0,0,1,4.49.53v4.6"/><path class="cls-2" d="M122.87,30.49V26a19.14,19.14,0,0,0-6.93,5.72v1.76a18.85,18.85,0,0,1,6.93-3"/><path class="cls-1" d="M67.22,52.88c-6.27,0-10.63-7.08-10.63-13.09v-.67c.08-5.83,3.85-11.29,10.43-11.29,6.92,0,10.49,6.55,10.55,12.75v.65c0,6.61-4.12,11.65-10.35,11.65m21.5,6.87c-4.63.77-9.08-.7-13.81-6.11,4.56-2.29,7.39-8,7.39-13.31v-.66a14.74,14.74,0,0,0-15-15.08A15.27,15.27,0,0,0,51.85,40v.61c0,8.91,6.61,15.52,14.71,15.52a15,15,0,0,0,3.4-.45c5.31,5,10,7.08,14.12,6.59a7.64,7.64,0,0,0,5.22-2.6Z"/><rect class="cls-3" x="202.8" y="16.54" width="25.17" height="15.42"/><path class="cls-4" d="M215.39,17.35a17.75,17.75,0,0,1-1.29,1.7,3,3,0,0,0-.28,3.12,14.81,14.81,0,0,1,.89,2.39,7.51,7.51,0,0,1,.11,2.31h-.7c0-1.7-.53-3.3-1.81-4a2.12,2.12,0,0,0-3.06,2.56c.31,1,.84,1.28,1,1.28a1.62,1.62,0,0,1,.52-1.59,1.42,1.42,0,0,1,2,.4,3.32,3.32,0,0,1,.46,1.36H211.9v1h2.64A1.31,1.31,0,0,1,213,29.08s.17,1.08,1.51.51a2,2,0,0,0,.85,1.7,2,2,0,0,0,.84-1.7c1.34.57,1.52-.51,1.52-.51a1.31,1.31,0,0,1-1.52-1.24h2.64v-1h-1.31a3.23,3.23,0,0,1,.45-1.36,1.43,1.43,0,0,1,2-.4,1.61,1.61,0,0,1,.51,1.59c.15,0,.69-.32,1-1.28a2.12,2.12,0,0,0-3.05-2.56c-1.29.71-1.82,2.31-1.82,4H216a7.16,7.16,0,0,1,.11-2.31,13.79,13.79,0,0,1,.88-2.39,3,3,0,0,0-.28-3.12,17.05,17.05,0,0,1-1.28-1.7"/><rect class="cls-3" x="235.3" y="16.54" width="25.18" height="15.42"/><path class="cls-4" d="M247.89,17.35a19.73,19.73,0,0,1-1.29,1.7,3,3,0,0,0-.29,3.12,13.92,13.92,0,0,1,.89,2.39,7.7,7.7,0,0,1,.12,2.31h-.71c0-1.7-.52-3.3-1.81-4a2.12,2.12,0,0,0-3.05,2.56c.3,1,.84,1.28,1,1.28a1.61,1.61,0,0,1,.51-1.59,1.43,1.43,0,0,1,2,.4,3.23,3.23,0,0,1,.45,1.36H244.4v1H247a1.32,1.32,0,0,1-1.52,1.24s.18,1.08,1.52.51a2,2,0,0,0,.85,1.7,2,2,0,0,0,.84-1.7c1.34.57,1.52-.51,1.52-.51a1.31,1.31,0,0,1-1.52-1.24h2.64v-1h-1.32a3.32,3.32,0,0,1,.46-1.36,1.43,1.43,0,0,1,2-.4A1.65,1.65,0,0,1,253,26.7c.14,0,.68-.32,1-1.28a2.12,2.12,0,0,0-3-2.56c-1.28.71-1.81,2.31-1.81,4h-.69a7.32,7.32,0,0,1,.1-2.31,14.81,14.81,0,0,1,.89-2.39,3,3,0,0,0-.28-3.12,17.05,17.05,0,0,1-1.28-1.7"/><rect class="cls-3" x="202.8" y="39.31" width="25.17" height="15.42"/><path class="cls-4" d="M215.39,40.12a17.75,17.75,0,0,1-1.29,1.7,3,3,0,0,0-.28,3.12,14.81,14.81,0,0,1,.89,2.39,7.5,7.5,0,0,1,.11,2.31h-.7c0-1.7-.53-3.31-1.81-4a2.12,2.12,0,0,0-3.06,2.56c.31,1,.84,1.27,1,1.27a1.62,1.62,0,0,1,.52-1.59,1.43,1.43,0,0,1,2,.41,3.28,3.28,0,0,1,.46,1.36H211.9v1h2.64A1.31,1.31,0,0,1,213,51.85s.17,1.07,1.51.51a2,2,0,0,0,.85,1.7,2,2,0,0,0,.84-1.7c1.34.56,1.52-.51,1.52-.51a1.31,1.31,0,0,1-1.52-1.24h2.64v-1h-1.31a3.19,3.19,0,0,1,.45-1.36,1.44,1.44,0,0,1,2-.41,1.61,1.61,0,0,1,.51,1.59c.15,0,.69-.32,1-1.27a2.12,2.12,0,0,0-3.05-2.56c-1.29.7-1.82,2.31-1.82,4H216a7.16,7.16,0,0,1,.11-2.31,13.79,13.79,0,0,1,.88-2.39,3,3,0,0,0-.28-3.12,17.05,17.05,0,0,1-1.28-1.7"/><rect class="cls-3" x="235.3" y="39.31" width="25.18" height="15.42"/><path class="cls-4" d="M247.89,40.12a19.73,19.73,0,0,1-1.29,1.7,3,3,0,0,0-.29,3.12,13.92,13.92,0,0,1,.89,2.39,7.7,7.7,0,0,1,.12,2.31h-.71c0-1.7-.52-3.31-1.81-4a2.12,2.12,0,0,0-3.05,2.56c.3,1,.84,1.27,1,1.27a1.61,1.61,0,0,1,.51-1.59,1.45,1.45,0,0,1,2,.41,3.19,3.19,0,0,1,.45,1.36H244.4v1H247a1.32,1.32,0,0,1-1.52,1.24s.18,1.07,1.52.51a2,2,0,0,0,.85,1.7,2,2,0,0,0,.84-1.7c1.34.56,1.52-.51,1.52-.51a1.31,1.31,0,0,1-1.52-1.24h2.64v-1h-1.32a3.28,3.28,0,0,1,.46-1.36,1.44,1.44,0,0,1,2-.41,1.65,1.65,0,0,1,.52,1.59c.14,0,.68-.32,1-1.27a2.12,2.12,0,0,0-3-2.56c-1.28.7-1.81,2.31-1.81,4h-.69a7.32,7.32,0,0,1,.1-2.31,14.81,14.81,0,0,1,.89-2.39,3,3,0,0,0-.28-3.12,17.05,17.05,0,0,1-1.28-1.7"/><polyline class="cls-1" points="3.45 0 14.32 0 13.75 2.7 6.36 2.7 5.55 6.49 12.47 6.49 11.89 9.19 4.98 9.19 4.05 13.52 11.69 13.52 11.12 16.22 0 16.22 3.45 0"/><path class="cls-1" d="M19.39,6.27h0a4.93,4.93,0,0,1,3.82-1.66c1.25,0,2.93.89,3.14,2.13a5.45,5.45,0,0,1,4.27-2.13c1.26,0,2.93.89,3.14,2.13a6.61,6.61,0,0,1-.24,2.7l-1.44,6.78H28.75l1.44-6.78c.24-1.22.2-2.59-1.47-2.59-1,0-2.17.94-2.57,2.59l-1.44,6.78H21.34l1.44-6.78C23,8.22,23,6.85,21.31,6.85c-1.06,0-2.18.94-2.57,2.59L17.3,16.22H13.93L16.32,4.94h3.35l-.28,1.33"/><path class="cls-1" d="M40.24,6.25h0a4.81,4.81,0,0,1,3.36-1.64c3.5,0,4.65,2.94,4,6s-2.82,6-6.12,6a2.88,2.88,0,0,1-3-1.93h0l-1.26,5.9H33.83L36.67,7.19c.16-.74.25-1.51.37-2.25h3.41l-.21,1.31M41,14.31c2.16,0,2.86-2,3.22-3.73s.52-3.73-1.63-3.73c-1.82,0-2.89,2.18-3.22,3.73S39.13,14.31,41,14.31Z"/><polyline class="cls-1" points="55.61 0 52.16 16.22 48.79 16.22 52.24 0 55.61 0"/><path class="cls-1" d="M60.4,16.56c-3.68,0-5.37-2.43-4.61-6a7.15,7.15,0,0,1,7.15-6c3.69,0,5.37,2.42,4.62,6a7.17,7.17,0,0,1-7.16,6m.48-2.25c2.06,0,2.81-1.93,3.2-3.73s.45-3.73-1.62-3.73-2.81,1.93-3.19,3.73S58.81,14.31,60.88,14.31Z"/><path class="cls-1" d="M74.53,4.94l-2.4,11.28H68.76l2.4-11.28h3.37M75.69,0l-.61,2.9h-3.6L72.1,0Z"/></g></g></svg>