<svg xmlns="http://www.w3.org/2000/svg" viewBox="0 0 281.09 89.53"><defs><style>.cls-1{fill:#f89c1c;}.cls-1,.cls-2{fill-rule:evenodd;}.cls-2{fill:#1d5376;}</style></defs><g id="Calque_2" data-name="Calque 2"><g id="Calque_1-2" data-name="Calque 1"><path class="cls-1" d="M61.5,68.74,59,70.5l-2.65,1.55L53.59,73.4l-2.86,1.09-2.93.92-3.11.6-3.21.42-3.18.14v-11l1.91-.07,1.91-.18L44,65l1.77-.43,1.76-.63,1.73-.67,1.63-.78,1.55-.92-12.5-9.18L38.3,51.19V45.68h9.32l12.15,9.11L61,53l1.1-1.84,1-1.94.77-2.08L64.5,45l.42-2.15.29-2.26.14-2.33-.18-2.75-.39-2.76-.67-2.54-.92-2.51L62,25.31l-1.34-2.26L59.17,20.9,57.4,19l-1.9-1.8-2.09-1.59L51.15,14.3l-2.33-1.17-2.5-.92-2.54-.67-2.72-.42L38.3,11V0l2,.07,1.94.18,1.91.24L46,.81l1.83.43,1.84.49,1.76.6,1.7.74,1.73.71,1.62.88,1.59.92,1.62,1,1.45,1.13,1.48,1.1L64,10l1.31,1.3,1.27,1.27,1.23,1.41L69,15.39,70,16.87l1,1.59L72,20.05l.85,1.66.81,1.7.67,1.73.6,1.76.49,1.84.43,1.83.35,1.91.25,1.94.14,1.91,0,2-.1,3.25L76,44.76l-.67,3-.84,3-1.17,2.86L72,56.38,70.47,59l-1.77,2.5,6.18,4.59,3.49,2.76,1.2,1,.67.67L78.83,57.19l32.06,24,.07.67L87.27,71.49l2,18L61.5,68.74ZM38.3,76.57l-2-.07-1.94-.1-1.91-.25-1.87-.39-1.83-.42-1.84-.5-1.8-.6-1.69-.67-1.73-.81-1.63-.85L18.46,71l-1.58-1L15.39,69l-1.45-1.16-1.41-1.2-1.3-1.24L10,64,8.72,62.63,7.63,61.15,6.53,59.7l-1-1.59-.92-1.59-.84-1.66L3,53.17l-.67-1.73-.64-1.77L1.2,47.84.78,46,.42,44.13.18,42.26l-.14-2,0-1.94,0-2,.14-1.91.24-1.94.36-1.91.42-1.83.49-1.84.64-1.76L3,23.41l.78-1.7.84-1.66.92-1.59,1-1.59,1.1-1.48,1.09-1.45L10,12.53l1.27-1.27,1.3-1.3,1.41-1.2,1.45-1.1,1.49-1.13,1.58-1,1.59-.92,1.63-.88,1.73-.71,1.69-.74,1.8-.6,1.84-.49L30.57.81,32.44.49,34.35.25,36.29.07l2-.07V11l-2.78.11-2.69.42-2.57.67-2.51.92L25.42,14.3l-2.26,1.34-2.08,1.59L19.17,19,17.4,20.9l-1.51,2.15-1.35,2.26-1.16,2.4-.92,2.51-.67,2.54-.35,2.76-.14,2.75.14,2.82.35,2.69.67,2.57.92,2.51,1.16,2.4,1.35,2.26L17.4,55.6l1.77,1.94,1.91,1.77,2.08,1.62,2.26,1.35,2.33,1.12,2.51.92,2.57.71,2.69.42,2.78.11v11Zm0-30.89H30.75l7.55,5.51V45.68Z"/><polygon class="cls-2" points="125.19 33.15 120.6 12.11 127.38 12.11 128.79 21.99 129.6 27.64 129.71 27.64 131.86 22.07 135.99 12.11 142.77 12.11 128.01 41.84 120.42 41.84 125.19 33.15 125.19 33.15"/><polygon class="cls-2" points="101.6 3.5 99.27 15.78 110.89 15.78 113.22 3.5 119.68 3.5 113.75 34.77 107.29 34.77 109.79 21.46 98.18 21.46 95.67 34.77 89.25 34.77 95.18 3.5 101.6 3.5 101.6 3.5"/><polygon class="cls-2" points="166.24 34.77 168.86 21.15 169.21 18.61 169.6 16.1 170.02 12.11 175.6 12.11 175.14 16.77 175.28 16.77 175.95 15.64 176.69 14.69 177.47 13.77 178.32 13.03 179.24 12.43 180.29 11.93 181.39 11.69 182.48 11.54 183.72 11.62 182.48 17.9 181.46 17.86 180.72 17.9 179.98 18.04 179.31 18.29 178.71 18.53 178.14 18.89 177.61 19.31 176.69 20.37 175.88 21.57 175.21 22.98 174.72 24.57 174.36 26.23 172.71 34.77 166.24 34.77 166.24 34.77"/><path class="cls-2" d="M194.31,11.72l.53-.11,1.48-.07,1.13.07,1.06.15,1,.24.92.29.85.42.77.42.74.57.6.6L204,15l.56.74.43.74.28.85.32.85.17.91.15.92,0,.92,0,1.55-.22,1.45-.28,1.41-.42,1.27-.57,1.31-.67,1.16-.74,1.1-.85,1-.92.92-1,.81-1.13.71-1.2.56-1.23.5-1.35.35-.95.14V30.22l.28-.07.6-.32.57-.35.56-.5.46-.56.81-1.27.67-1.48.5-1.52.28-1.66.14-1.52-.07-.78-.1-.81-.25-.78-.39-.7-.53-.53-.6-.5-.81-.24-1-.11-.67,0-.46.14v-5Zm-1.87,23.55h-1.09l-1-.18-1-.17-.91-.32-.85-.36-.74-.42-.74-.56-.68-.53-.6-.71-.49-.67-.49-.78-.36-.84-.31-.89-.18-.91-.14-1,0-1.06,0-1.44.21-1.42.28-1.34.43-1.34.56-1.24.6-1.23.74-1.1.85-1,.92-1,1.06-.81,1.09-.71,1.2-.63,1.24-.5,1.34-.35.88-.14v5l-.21.07-.67.28-.53.39-.57.46-.49.56L191,19.73l-.67,1.49-.42,1.59-.32,1.51-.11,1.49,0,1,.25.84.31.78.43.67.49.57.67.35.74.25.85.14h.07l.67-.07.32-.11v4.94l-.39.07-1.48,0Z"/><path class="cls-2" d="M167,2.68l-4.45,23.44-.42,2.19-.32,2.19-.25,2.23-.1,2h-5.9l.32-3.7h-.07l-.78,1-.84.85-.92.74-.36.25V29.66l.71-.5.74-.67.67-.92.67-1.16.5-1.34.42-1.52,1.2-6.25-.53-.28-.6-.25-.74-.21-.88,0-.71,0-.74.14-.71.21V11.86l1.06-.17,1.59-.15,1.59.15.81.17.78.25,1.8-9.43ZM152.93,33.93l-.56.38-1,.43-1.06.28-.95.21-1.06,0-1.41-.11-1.34-.42-1.17-.67-.53-.5-.49-.49-.85-1.24-.64-1.44-.21-.82-.21-.91-.1-1.87.07-1.49.17-1.48.28-1.38.5-1.41.56-1.31.67-1.27.75-1.16.91-1.1,1-1,1.13-.88,1.13-.78,1.23-.67,1.34-.56,1.49-.36.38-.07v5.05l0,0-.6.35-.67.42-.57.5-.53.56-.49.67-.85,1.34-.63,1.59L148.2,24,148,25.67l0,1,.21.92.22.74.38.6.5.5.53.35.63.25.71.07.81-.07.78-.28.1-.07v4.27Z"/><polygon class="cls-2" points="189.58 50.41 186.65 65.73 185.98 69.72 185.41 73.08 179.73 73.08 180.15 69.34 180.12 69.3 179.2 70.32 178.28 71.24 177.29 71.98 176.31 72.58 175.35 73.01 174.29 73.33 173.31 73.5 172.28 73.57 171.01 73.5 169.84 73.22 168.86 72.72 168.01 72.05 167.34 71.14 166.84 70.04 166.53 68.73 166.42 67.22 166.53 65.24 166.84 63.05 169.28 50.41 175.71 50.41 173.45 62.56 173.2 64.15 173.09 65.63 173.2 66.65 173.38 67.15 173.62 67.54 173.94 67.89 174.36 68.14 174.86 68.24 175.46 68.31 176.31 68.21 177.19 67.82 178.04 67.22 178.81 66.37 179.55 65.31 180.15 64.04 180.72 62.63 181.07 60.97 183.12 50.41 189.58 50.41 189.58 50.41"/><polygon class="cls-2" points="277.66 72.34 276.46 72.83 274.98 73.22 273.21 73.43 271.24 73.57 270.21 73.5 269.23 73.39 268.27 73.22 267.39 72.97 266.54 72.58 265.76 72.16 265.02 71.67 264.42 71.14 263.79 70.47 263.26 69.8 262.8 68.98 262.45 68.21 262.13 67.29 261.92 66.37 261.78 65.31 261.78 64.29 261.85 62.8 262.02 61.36 262.38 60.02 262.8 58.64 263.44 57.37 264.18 56.2 264.95 55.11 265.87 54.09 266.93 53.17 268.02 52.28 269.23 51.61 270.57 51.01 271.91 50.52 273.39 50.17 274.91 49.99 276.5 49.85 277.84 49.99 279.14 50.1 280.24 50.41 281.09 50.66 279.5 55.6 278.16 55.22 277.31 55.11 276.39 55.04 275.47 55.11 274.63 55.22 273.81 55.46 273.07 55.78 272.4 56.13 271.73 56.59 271.13 57.12 270.64 57.69 269.72 58.96 269.05 60.44 268.62 61.96 268.52 63.55 268.55 64.71 268.87 65.7 269.23 66.48 269.79 67.15 270.46 67.71 271.24 68.06 272.12 68.31 273.04 68.38 274.42 68.31 275.65 68.06 276.71 67.75 277.63 67.39 277.66 72.34 277.66 72.34"/><path class="cls-2" d="M224.81,41h.11l-.11.5V41Zm0,10.2.78-.45,1-.43.95-.28,1.13-.25,1-.07h.85l.81.11.75.21.67.28.67.32L234,51l.56.43.42.56.78,1.17.5,1.34L236.6,56l0,1.59L236.53,60l-.35,2.11-.63,2-.85,1.77-1,1.69-1.23,1.48L231,70.32l-1.52,1.1-1.73.88-1.87.67-1.1.25V68.38l.78-.39.74-.6.74-.74.6-.77.6-.92.5-.92.42-1,.32-1,.25-1.06.1-.95.07-1.06-.07-.85-.1-.74-.25-.74-.39-.53-.42-.5-.53-.39-.64-.21-.67-.07-1,.11-1,.39-.11.07V51.15ZM212.63,72.09,218.49,41h6.32v.5l-2.29,11.82h.14l.53-.74.67-.67.81-.6.14-.11V55.5l-.74.53-.88.77-.71,1.06-.67,1.24-.49,1.45-.43,1.65-1.16,6.22,1.09.39,1,.17h1l1-.17.92-.39.07,0v4.84l-.88.21-2.08.21h-2.19l-2.26-.24-2.33-.5-2.44-.81Z"/><path class="cls-2" d="M259.59,62.06l.28-1.69.14-1.94-.18-2.09-.21-1-.28-1-.42-.92-.57-.85-.67-.74-.85-.67-1-.53-1.1-.46L253.41,50l-1.52-.07-1.55.07-.67.11v4.66l.67-.15h1l.91.25.67.43.57.56.35.67.18.74.07.71-.14.81-4.27.6v4.13l9.92-1.45ZM249.67,73.5l.81-.07,2.19-.28,2.15-.57,1-.35,1-.42-.49-4.73-.95.49-1.49.49-1.83.36-1,.14h-1l-.38,0v5Zm0-23.4-.78.1-1.34.39-1.31.53-1.16.67-1.1.74-1,.88-.84,1-.85,1.06-.67,1.09-.6,1.2-.5,1.24-.38,1.23-.29,1.27-.14,1.27,0,1.31.1,2.08.18,1,.32.91.32.82.42.77.46.74.56.68.67.56.74.53.78.42.88.39,1,.32,1.06.18,1.09.1,1.24.07,1.2-.07v-5l-.6,0-.92-.11-.85-.32-.81-.42-.67-.56-.5-.78-.35-.92-.14-1.16,4.84-.71V59.38l-4.38.64.1-.71.32-.78.43-.84.53-.82.67-.77.88-.67.95-.57.5-.1V50.1Z"/><path class="cls-2" d="M149.05,41.45l.25-.07,2-.11,1.59.11,1.48.21,1.34.35,1.2.42,1.13.6,1,.67.92.75.84.81.74,1,.6,1,.5,1.09.42,1.09.39,1.24.25,1.2.1,1.24.07,1.27-.07,1.3-.17,1.34-.25,1.24-.32,1.2-.84,2.22-1,2-1.16,1.69-1.24,1.48-1.23,1.1-1.14.74v.11l1.63-.36,1.55-.17,1.7-.15h2l-1,5h-7.91l-2,.07-1.45.18-1.66.24h-.25V68l.74-.17.92-.43.85-.56.85-.67.81-.78.67-.85.6-1,.6-1.1.49-1.09.43-1.17.38-1.16.5-2.4.1-1.17.08-1.16L157,53l-.24-1.34-.43-1.27-.6-1.23-.38-.5-.46-.46-.5-.46-.63-.35-.67-.32-.71-.21-.88-.14-.92-.07-1,.14-.5.11v-5.4Zm-2.33,32.19-2.08-.14-1.1-.25-1-.28-1.06-.39-1-.49-1.06-.6-.91-.74-.89-.78-.81-1-.74-1.09-.6-1.24L135,65.31l-.43-1.45-.17-1.66-.15-1.76.07-1.8.25-1.77.32-1.76.46-1.7.67-1.66.74-1.58.88-1.49,1-1.41L139.8,46,141,44.84l1.41-1L144,43l1.66-.7,1.76-.5,1.66-.31v5.4l-.56.14-1,.42-.84.53-.89.67-.77.81-.74.92-.68,1-.56,1-.53,1.1-.42,1.16-.39,1.17-.5,2.4-.1,1.13L141,60.44l.14,1.59.28,1.45.5,1.34.67,1.16.42.5.49.42.57.39.6.28.67.25.67.17.81.15.85.07,1-.15.32-.07v5.58l-2.33.07Z"/><path class="cls-2" d="M211.79,40.92,206,47.66h-4.34v-.49l3.92-6.25ZM201.62,73.5v-5l.39,0h1l1-.14,1.83-.36,1.49-.49.95-.49.49,4.73-1,.42-1,.35-2.15.57-2.19.28-.81.07Zm0-10V59.38l4.34-.6L206,58l-.07-.71-.18-.74-.35-.67-.56-.56-.67-.43-.85-.25h-1.06l-.67.15V50.1l.67-.11,1.55-.07,1.52.07,1.34.21,1.1.46,1,.53.85.67.67.74.57.85.42.92.28,1,.22,1,.17,2.09-.14,1.94-.25,1.69-9.95,1.45Zm0-15.85h-.28l.28-.49v.49Zm0,2.44v4.66l-.5.1-1,.57-.88.67-.67.77-.53.82-.43.84-.24.78-.18.71,4.38-.64v4.13l-4.84.71.21,1.16.29.92.49.78.67.56.81.42.85.32.92.11.6,0v5l-1.2.07-1.24-.07-1.09-.1L197,73.22l-.95-.32-.89-.39-.77-.42-.74-.53L193,71l-.56-.68-.46-.74-.46-.77-.28-.82-.32-.91-.18-1-.1-2.08,0-1.31.18-1.27.25-1.27.39-1.23.49-1.24.6-1.2.74-1.09.78-1.06.85-1,1.06-.88,1-.74,1.23-.67,1.24-.53,1.38-.39.74-.1Z"/></g></g></svg>