<svg xmlns="http://www.w3.org/2000/svg" xmlns:xlink="http://www.w3.org/1999/xlink" viewBox="0 0 261.68 93.88"><defs><style>.cls-1{fill:none;}.cls-2{clip-path:url(#clip-path);}.cls-3,.cls-4{fill:#231f20;}.cls-4,.cls-6{fill-rule:evenodd;}.cls-5{fill:#026db1;}.cls-6{fill:#fff;}</style><clipPath id="clip-path" transform="translate(0 0)"><polyline class="cls-1" points="0 0 0 133.61 261.68 133.61 261.68 0"/></clipPath></defs><g id="Calque_2" data-name="Calque 2"><g id="Calque_1-2" data-name="Calque 1"><g class="cls-2"><path class="cls-3" d="M105.89,82V65.66h-.12c-.58.53-2.73.57-3.64.57h-1.58v.14c1.82,1.12,1.57,2.78,1.57,4.84v6.92c0,3.47-3.4,5.9-6.15,5.9-3.61,0-5.11-2.57-5.11-6.7V65.66h-.12c-.58.53-2.75.57-3.66.57H85.52v.14c1.82,1.12,1.58,2.78,1.58,4.84v6.9c0,6.31,2.74,9.32,7.63,9.32,2.91,0,5.9-1,7.4-3.5v3h5.34v-.13c-1.82-1-1.58-2.7-1.58-4.77" transform="translate(0 0)"/><path class="cls-3" d="M114.19,73.27a5.27,5.27,0,0,1,5.35-4.6c3,0,4.9,1.48,5.36,4.6H114.19m15.08,2.61c.16-5.77-3.7-10.13-9.35-10.13-6.19,0-10.38,4.49-10.38,10.72s4.85,11,11.92,11a14.07,14.07,0,0,0,5.73-1.11l2.08-4.21h-.13a10.41,10.41,0,0,1-6.81,2.39c-4.69,0-8.23-3.2-8.31-8.71Z" transform="translate(0 0)"/><path class="cls-3" d="M132.55,56.15c1,0,3-.06,3.65-.67h.12V83.82a12.53,12.53,0,0,0,3.43.54c4.54,0,7.14-3.17,7.14-7.6s-2-7.69-6.19-7.69a6.67,6.67,0,0,0-3.47,1l2.23-3.82a8.11,8.11,0,0,1,2.92-.49c4.71,0,8.71,4.08,8.71,10.2,0,7-4.74,11.56-12.25,11.56a48.91,48.91,0,0,1-7.54-.81v-.13c1.38-.64,1.25-2.12,1.25-3.6V62.38c0-2.07.25-5-1.54-6.1v-.13h1.54" transform="translate(0 0)"/><path class="cls-3" d="M158.47,73.27a5.27,5.27,0,0,1,5.36-4.6c3,0,4.9,1.48,5.35,4.6H158.47m15.07,2.61c.17-5.77-3.69-10.13-9.34-10.13-6.19,0-10.38,4.49-10.38,10.72s4.85,11,11.91,11a14.09,14.09,0,0,0,5.74-1.11l2.07-4.21h-.12a10.41,10.41,0,0,1-6.81,2.39c-4.7,0-8.23-3.2-8.31-8.71Z" transform="translate(0 0)"/><path class="cls-3" d="M192.11,70.88H192a6.58,6.58,0,0,0-5.07-2.21c-4,0-6.94,3.06-6.94,7.34a8.45,8.45,0,0,0,8.64,8.58,10.23,10.23,0,0,0,6.06-2.2h.13l-2.16,4.24a14.56,14.56,0,0,1-5.48.89c-6.4,0-11.4-4.5-11.4-10.35,0-7.73,5.58-11.42,11.85-11.42a18.68,18.68,0,0,1,4.48.53v4.6" transform="translate(0 0)"/><path class="cls-4" d="M124.08,62v-4.5a19.26,19.26,0,0,0-6.94,5.72V65a19,19,0,0,1,6.94-3" transform="translate(0 0)"/><path class="cls-3" d="M68.43,84.42c-6.27,0-10.64-7.07-10.64-13.08,0-.06,0-.62,0-.68.08-5.82,3.85-11.28,10.42-11.28,6.92,0,10.5,6.55,10.56,12.75v.65c0,6.61-4.12,11.64-10.35,11.64m21.5,6.89c-4.63.75-9.08-.71-13.82-6.11,4.57-2.3,7.4-8,7.4-13.32v-.66a14.75,14.75,0,0,0-15-15.08,15.25,15.25,0,0,0-15.41,15.4v.61c0,8.91,6.6,15.51,14.7,15.51a14.42,14.42,0,0,0,3.41-.44c5.31,5,10,7.08,14.12,6.59a7.7,7.7,0,0,0,5.22-2.6Z" transform="translate(0 0)"/><rect class="cls-5" x="204.01" y="48.09" width="25.17" height="15.43"/><path class="cls-6" d="M216.59,48.9a17.05,17.05,0,0,1-1.28,1.7,3,3,0,0,0-.29,3.12,12.86,12.86,0,0,1,.89,2.39,7.7,7.7,0,0,1,.12,2.31h-.7c0-1.7-.53-3.3-1.82-4a2.12,2.12,0,0,0-3,2.57c.3,1,.84,1.28,1,1.28a1.61,1.61,0,0,1,.51-1.59,1.43,1.43,0,0,1,2,.4,3.28,3.28,0,0,1,.46,1.36h-1.32v1h2.63a1.3,1.3,0,0,1-1.5,1.24s.17,1.08,1.5.51a2,2,0,0,0,.85,1.7,2,2,0,0,0,.85-1.7c1.33.57,1.52-.51,1.52-.51a1.31,1.31,0,0,1-1.52-1.24h2.64v-1h-1.31a3.19,3.19,0,0,1,.45-1.36,1.43,1.43,0,0,1,2-.4,1.61,1.61,0,0,1,.51,1.59c.15,0,.69-.32,1-1.28a2.13,2.13,0,0,0-3.06-2.57c-1.28.72-1.81,2.32-1.81,4h-.7a7.7,7.7,0,0,1,.12-2.31,13.5,13.5,0,0,1,.88-2.39,3,3,0,0,0-.28-3.12,19.73,19.73,0,0,1-1.29-1.7" transform="translate(0 0)"/><rect class="cls-5" x="236.51" y="48.09" width="25.17" height="15.43"/><path class="cls-6" d="M249.09,48.9a16.12,16.12,0,0,1-1.29,1.7,3,3,0,0,0-.28,3.12,13.62,13.62,0,0,1,.89,2.39,8.1,8.1,0,0,1,.12,2.31h-.71c0-1.7-.52-3.3-1.81-4A2.13,2.13,0,0,0,243,57c.3,1,.84,1.28,1,1.28a1.61,1.61,0,0,1,.51-1.59,1.43,1.43,0,0,1,2,.4,3.36,3.36,0,0,1,.45,1.36h-1.31v1h2.64a1.32,1.32,0,0,1-1.52,1.24s.18,1.08,1.52.51a2,2,0,0,0,.84,1.7,2,2,0,0,0,.85-1.7c1.34.57,1.52-.51,1.52-.51a1.31,1.31,0,0,1-1.52-1.24h2.64v-1h-1.32a3.19,3.19,0,0,1,.45-1.36,1.44,1.44,0,0,1,2-.4,1.63,1.63,0,0,1,.51,1.59c.14,0,.69-.32,1-1.28a2.13,2.13,0,0,0-3.05-2.57c-1.28.72-1.81,2.32-1.81,4h-.7a7.51,7.51,0,0,1,.11-2.31,14.47,14.47,0,0,1,.89-2.39,3,3,0,0,0-.28-3.12,17.75,17.75,0,0,1-1.29-1.7" transform="translate(0 0)"/><rect class="cls-5" x="204.01" y="70.86" width="25.17" height="15.42"/><path class="cls-6" d="M216.59,71.67a16.17,16.17,0,0,1-1.28,1.69,3.05,3.05,0,0,0-.29,3.13,13.13,13.13,0,0,1,.89,2.39,7.7,7.7,0,0,1,.12,2.31h-.7c0-1.7-.53-3.31-1.82-4a2.12,2.12,0,0,0-3,2.57c.3,1,.84,1.27,1,1.27a1.59,1.59,0,0,1,.51-1.58,1.43,1.43,0,0,1,2,.4,3.28,3.28,0,0,1,.46,1.36h-1.32v1h2.63a1.3,1.3,0,0,1-1.5,1.24s.17,1.07,1.5.51a2,2,0,0,0,.85,1.7,2,2,0,0,0,.85-1.7c1.33.56,1.52-.51,1.52-.51a1.31,1.31,0,0,1-1.52-1.24h2.64v-1h-1.31a3.19,3.19,0,0,1,.45-1.36,1.43,1.43,0,0,1,2-.4,1.59,1.59,0,0,1,.51,1.58c.15,0,.69-.32,1-1.27a2.13,2.13,0,0,0-3.06-2.57c-1.28.71-1.81,2.32-1.81,4h-.7a7.7,7.7,0,0,1,.12-2.31,13.79,13.79,0,0,1,.88-2.39,3,3,0,0,0-.28-3.13,18.58,18.58,0,0,1-1.29-1.69" transform="translate(0 0)"/><rect class="cls-5" x="236.51" y="70.86" width="25.17" height="15.42"/><path class="cls-6" d="M249.09,71.67a15.33,15.33,0,0,1-1.29,1.69,3,3,0,0,0-.28,3.13,13.92,13.92,0,0,1,.89,2.39,8.1,8.1,0,0,1,.12,2.31h-.71c0-1.7-.52-3.31-1.81-4a2.13,2.13,0,0,0-3,2.57c.3,1,.84,1.27,1,1.27a1.59,1.59,0,0,1,.51-1.58,1.43,1.43,0,0,1,2,.4,3.36,3.36,0,0,1,.45,1.36h-1.31v1h2.64a1.32,1.32,0,0,1-1.52,1.24s.18,1.07,1.52.51a2,2,0,0,0,.84,1.7,2,2,0,0,0,.85-1.7c1.34.56,1.52-.51,1.52-.51a1.31,1.31,0,0,1-1.52-1.24h2.64v-1h-1.32a3.19,3.19,0,0,1,.45-1.36,1.44,1.44,0,0,1,2-.4,1.61,1.61,0,0,1,.51,1.58c.14,0,.69-.32,1-1.27a2.13,2.13,0,0,0-3.05-2.57c-1.28.71-1.81,2.32-1.81,4h-.7a7.51,7.51,0,0,1,.11-2.31,14.81,14.81,0,0,1,.89-2.39,3,3,0,0,0-.28-3.13,16.8,16.8,0,0,1-1.29-1.69" transform="translate(0 0)"/><path class="cls-3" d="M2.68,0H7c3.94,0,6,1.92,5,6.31S8.22,12.65,4.3,12.62H0L2.68,0m.47,10.52h1.4c3.21,0,4.16-2.2,4.58-4.21S9.56,2.06,6.34,2.1H4.94Z" transform="translate(0 0)"/><path class="cls-3" d="M15.18,8.93c-.24,1.14-.31,2.2,1,2.2A1.84,1.84,0,0,0,18.06,10h2.36c-.69,2.16-2.53,2.88-4.58,2.88-3,0-3.85-1.7-3.22-4.63.56-2.64,2.52-4.67,5.2-4.67,1.64,0,2.89.56,3.29,2.1a4.28,4.28,0,0,1,.1,1.57,13.37,13.37,0,0,1-.28,1.68H15.18m3.41-1.75c.21-1,.13-1.85-1.14-1.85s-1.66.89-1.9,1.85ZM21.23,0,18.31,2.52h-1.4l2-2.52Z" transform="translate(0 0)"/><polyline class="cls-3" points="21.89 3.85 24.66 3.85 25.36 9.79 25.39 9.79 28.66 3.85 31.16 3.85 26.12 12.62 23.25 12.62 21.89 3.85"/><path class="cls-3" d="M33.21,8.93c-.24,1.14-.31,2.2,1,2.2A1.84,1.84,0,0,0,36.09,10h2.36c-.68,2.16-2.54,2.88-4.58,2.88-3,0-3.85-1.7-3.22-4.63.56-2.64,2.53-4.67,5.2-4.67,1.64,0,2.89.56,3.29,2.1a4.28,4.28,0,0,1,.1,1.57A13.37,13.37,0,0,1,39,8.93H33.21m3.41-1.75c.2-1,.13-1.85-1.14-1.85s-1.66.89-1.9,1.85Z" transform="translate(0 0)"/><polyline class="cls-3" points="44.59 0 41.91 12.62 39.29 12.62 41.97 0 44.59 0"/><path class="cls-3" d="M47.8,12.88c-2.87,0-4.18-1.89-3.59-4.65a5.57,5.57,0,0,1,5.56-4.65c2.87,0,4.18,1.89,3.6,4.65a5.58,5.58,0,0,1-5.57,4.65m.37-1.75c1.61,0,2.19-1.5,2.49-2.9s.35-2.9-1.26-2.9-2.18,1.5-2.48,2.9S46.56,11.13,48.17,11.13Z" transform="translate(0 0)"/><path class="cls-3" d="M57.8,4.86h0a3.74,3.74,0,0,1,2.61-1.28c2.73,0,3.62,2.29,3.12,4.65s-2.2,4.65-4.77,4.65a2.24,2.24,0,0,1-2.35-1.5h0l-1,4.59H52.82L55,5.59c.12-.58.19-1.17.28-1.75H58l-.16,1m.56,6.27c1.67,0,2.21-1.55,2.5-2.9s.41-2.9-1.27-2.9c-1.42,0-2.25,1.69-2.5,2.9S56.94,11.13,58.36,11.13Z" transform="translate(0 0)"/><path class="cls-3" d="M68,4.86h0A3.74,3.74,0,0,1,70.6,3.58c2.73,0,3.62,2.29,3.12,4.65S71.53,12.88,69,12.88a2.25,2.25,0,0,1-2.36-1.5h0l-1,4.59H63L65.18,5.59c.12-.58.19-1.17.28-1.75h2.66l-.17,1m.56,6.27c1.67,0,2.21-1.55,2.5-2.9s.41-2.9-1.27-2.9c-1.42,0-2.25,1.69-2.5,2.9S67.09,11.13,68.51,11.13Z" transform="translate(0 0)"/><path class="cls-3" d="M77.19,8.93c-.24,1.14-.31,2.2,1,2.2A1.84,1.84,0,0,0,80.07,10h2.36c-.69,2.16-2.54,2.88-4.58,2.88-3,0-3.85-1.7-3.23-4.63.57-2.64,2.53-4.67,5.21-4.67,1.64,0,2.88.56,3.29,2.1a4.28,4.28,0,0,1,.1,1.57,13.37,13.37,0,0,1-.28,1.68H77.19M80.6,7.18c.2-1,.13-1.85-1.15-1.85s-1.65.89-1.89,1.85Z" transform="translate(0 0)"/><path class="cls-3" d="M87.57,4.88h0a3.8,3.8,0,0,1,3-1.3A2.55,2.55,0,0,1,93,5.24a4.28,4.28,0,0,1,3.33-1.66,2.56,2.56,0,0,1,2.44,1.66,5.22,5.22,0,0,1-.18,2.1l-1.12,5.28H94.85L96,7.34c.19-.94.15-2-1.14-2a2.32,2.32,0,0,0-2,2l-1.12,5.28H89.09l1.12-5.28c.18-.94.15-2-1.15-2a2.3,2.3,0,0,0-2,2l-1.13,5.28H83.32l1.87-8.78h2.6l-.22,1" transform="translate(0 0)"/><path class="cls-3" d="M102.35,8.93c-.24,1.14-.31,2.2,1,2.2A1.85,1.85,0,0,0,105.23,10h2.36c-.69,2.16-2.53,2.88-4.58,2.88-3,0-3.85-1.7-3.23-4.63.56-2.64,2.53-4.67,5.21-4.67,1.64,0,2.88.56,3.29,2.1a4.28,4.28,0,0,1,.1,1.57,13.37,13.37,0,0,1-.28,1.68h-5.75m3.41-1.75c.2-1,.13-1.85-1.14-1.85s-1.66.89-1.9,1.85Z" transform="translate(0 0)"/><path class="cls-3" d="M112.72,4.86l0,0a3.76,3.76,0,0,1,3-1.33c.88,0,2.43.65,2.48,1.92a6.42,6.42,0,0,1-.12,1.4l-1.22,5.72h-2.62l1.12-5.28c.18-.94.15-2-1.14-2a2.31,2.31,0,0,0-2,2l-1.12,5.28h-2.63l1.87-8.78h2.6l-.21,1" transform="translate(0 0)"/><path class="cls-3" d="M121.11,3.84l.37-1.73,2.82-.94-.57,2.67h2l-.37,1.75h-2l-.87,4.07c-.24,1.16-.13,1.47.77,1.47.29,0,.57,0,.86-.05l-.33,1.54a10.6,10.6,0,0,1-2.12.26c-2,0-2.25-1.07-1.85-3l.92-4.32H119l.38-1.75h1.76" transform="translate(0 0)"/><path class="cls-3" d="M3.09,26.4c-.24,1.14-.31,2.2,1,2.2A1.84,1.84,0,0,0,6,27.47H8.33c-.69,2.16-2.53,2.88-4.58,2.88-3,0-3.85-1.69-3.22-4.63.56-2.64,2.52-4.66,5.2-4.66,1.64,0,2.89.55,3.29,2.09a4.3,4.3,0,0,1,.1,1.57,13.08,13.08,0,0,1-.28,1.68H3.09M6.5,24.66c.2-1,.13-1.86-1.14-1.86s-1.66.89-1.9,1.86Zm2.64-7.19L6.22,20H4.82l2-2.52Z" transform="translate(0 0)"/><path class="cls-3" d="M15.05,24.39c.13-.71,0-1.59-1-1.59s-1.58,2.1-1.76,2.78-.56,3,.56,3,1.52-1,1.69-1.71H17.1a4.36,4.36,0,0,1-4.61,3.46c-2.6,0-3.42-2.32-2.93-4.65s2.3-4.64,4.91-4.64c2.23,0,3.62,1.27,3.16,3.33H15.05" transform="translate(0 0)"/><path class="cls-3" d="M21.55,30.35c-2.86,0-4.17-1.89-3.59-4.65a5.57,5.57,0,0,1,5.57-4.64c2.87,0,4.18,1.88,3.59,4.64a5.57,5.57,0,0,1-5.57,4.65m.38-1.75c1.6,0,2.19-1.5,2.48-2.9s.36-2.9-1.25-2.9S21,24.3,20.67,25.7,20.32,28.6,21.93,28.6Z" transform="translate(0 0)"/><path class="cls-3" d="M31.82,22.33l0,.05a3.76,3.76,0,0,1,3-1.32c.87,0,2.43.64,2.48,1.92a5.68,5.68,0,0,1-.13,1.39L36,30.09H33.34l1.12-5.28c.18-.94.15-2-1.15-2a2.33,2.33,0,0,0-2,2l-1.12,5.28H27.57l1.87-8.77H32l-.22,1" transform="translate(0 0)"/><path class="cls-3" d="M41.86,30.35c-2.87,0-4.18-1.89-3.59-4.65a5.56,5.56,0,0,1,5.56-4.64c2.87,0,4.18,1.88,3.59,4.64a5.56,5.56,0,0,1-5.56,4.65m.37-1.75c1.61,0,2.19-1.5,2.49-2.9s.35-2.9-1.26-2.9S41.28,24.3,41,25.7,40.62,28.6,42.23,28.6Z" transform="translate(0 0)"/><path class="cls-3" d="M52.14,22.35h0a3.8,3.8,0,0,1,3-1.29,2.54,2.54,0,0,1,2.44,1.65,4.27,4.27,0,0,1,3.33-1.65,2.56,2.56,0,0,1,2.44,1.65,5.23,5.23,0,0,1-.19,2.1L62,30.09H59.42l1.12-5.28c.19-.94.15-2-1.14-2a2.32,2.32,0,0,0-2,2l-1.12,5.28H53.66l1.12-5.28c.18-.94.15-2-1.15-2a2.33,2.33,0,0,0-2,2l-1.12,5.28H47.89l1.86-8.77h2.61l-.22,1" transform="translate(0 0)"/><path class="cls-3" d="M68.29,21.32l-1.86,8.77H63.81l1.86-8.77h2.62m.91-3.85-.48,2.26h-2.8l.48-2.26Z" transform="translate(0 0)"/><path class="cls-3" d="M76.11,33.46H73.49l1-4.61h0a3.66,3.66,0,0,1-3,1.5c-2.57,0-3.27-2.39-2.79-4.65s2.37-4.64,5.1-4.64a2.31,2.31,0,0,1,2.07,1.27l0,0,.27-1h2.66c-.17.59-.34,1.18-.47,1.76l-2.2,10.38M73.87,22.8c-1.68,0-2.22,1.56-2.51,2.9s-.41,2.9,1.27,2.9c1.42,0,2.25-1.69,2.51-2.9S75.28,22.8,73.87,22.8Z" transform="translate(0 0)"/><path class="cls-3" d="M84.25,29a3.82,3.82,0,0,1-3,1.35c-.88,0-2.43-.66-2.47-1.94a5.9,5.9,0,0,1,.12-1.4l1.21-5.69h2.62l-1.12,5.26c-.18.94-.15,2,1.15,2a2.34,2.34,0,0,0,2-2l1.12-5.26h2.62L87,28.52c-.09.52-.17,1-.23,1.57H84.13L84.25,29" transform="translate(0 0)"/><path class="cls-3" d="M91.55,26.4c-.24,1.14-.31,2.2,1,2.2a1.83,1.83,0,0,0,1.84-1.13h2.36c-.68,2.16-2.53,2.88-4.58,2.88-3,0-3.85-1.69-3.22-4.63a5.45,5.45,0,0,1,5.2-4.66c1.64,0,2.89.55,3.29,2.09a4.3,4.3,0,0,1,.11,1.57,15.17,15.17,0,0,1-.29,1.68H91.55M95,24.66c.21-1,.13-1.86-1.14-1.86s-1.66.89-1.9,1.86Z" transform="translate(0 0)"/><polyline class="cls-3" points="98.79 27.77 101.38 27.77 98.39 32.05 96.59 32.05 98.79 27.77"/><polyline class="cls-3" points="108.97 30.09 106.27 30.09 108.95 17.47 111.66 17.47 108.97 30.09"/><path class="cls-3" d="M114.92,22.33l0,.05a3.76,3.76,0,0,1,3-1.32c.87,0,2.43.64,2.47,1.92a5.76,5.76,0,0,1-.12,1.39l-1.22,5.72h-2.61l1.12-5.28c.18-.94.14-2-1.15-2a2.33,2.33,0,0,0-2,2l-1.12,5.28h-2.62l1.86-8.77h2.61l-.22,1" transform="translate(0 0)"/><path class="cls-3" d="M125.07,22.33l0,.05a3.76,3.76,0,0,1,3-1.32c.87,0,2.43.64,2.47,1.92a5.29,5.29,0,0,1-.12,1.39l-1.21,5.72h-2.62l1.12-5.28c.18-.94.14-2-1.15-2a2.33,2.33,0,0,0-2,2l-1.12,5.28h-2.62l1.86-8.77h2.61l-.22,1" transform="translate(0 0)"/><path class="cls-3" d="M135.11,30.35c-2.87,0-4.18-1.89-3.59-4.65a5.56,5.56,0,0,1,5.57-4.64c2.86,0,4.17,1.88,3.59,4.64a5.58,5.58,0,0,1-5.57,4.65m.37-1.75c1.61,0,2.19-1.5,2.49-2.9s.35-2.9-1.26-2.9-2.18,1.5-2.48,2.9S133.87,28.6,135.48,28.6Z" transform="translate(0 0)"/><polyline class="cls-3" points="142.06 21.32 144.84 21.32 145.53 27.26 145.57 27.26 148.84 21.32 151.34 21.32 146.29 30.09 143.43 30.09 142.06 21.32"/><path class="cls-3" d="M151.62,23.8a3.11,3.11,0,0,1,1.65-2.19,6,6,0,0,1,2.7-.55c1.77,0,3.6.64,3,3.28l-1,4.79a6.94,6.94,0,0,0-.09,1h-2.35a10.67,10.67,0,0,1,.15-1.17h0a3.62,3.62,0,0,1-3,1.43c-1.64,0-2.67-.94-2.3-2.65a4,4,0,0,1,2.45-2.78,9.06,9.06,0,0,1,3.53-.48l.17-.82a.88.88,0,0,0-1-1.08,1.54,1.54,0,0,0-1.44,1.26h-2.51M153,27.34a1,1,0,0,0,1,1.26c1.45,0,1.85-1.61,2.07-2.64C155.14,26,153.28,25.93,153,27.34Z" transform="translate(0 0)"/><path class="cls-3" d="M162,21.32l.37-1.73,2.82-.95-.57,2.68h2l-.37,1.75h-2l-.87,4.06c-.24,1.16-.14,1.47.77,1.47.28,0,.57,0,.85-.05l-.32,1.54a10.69,10.69,0,0,1-2.12.26c-2.05,0-2.26-1.06-1.85-3l.91-4.31h-1.76l.37-1.75H162" transform="translate(0 0)"/><path class="cls-3" d="M170.23,21.32l-1.87,8.77h-2.62l1.86-8.77h2.63m.9-3.85-.48,2.26h-2.79l.47-2.26Z" transform="translate(0 0)"/><path class="cls-3" d="M174.25,30.35c-2.87,0-4.18-1.89-3.59-4.65a5.55,5.55,0,0,1,5.56-4.64c2.87,0,4.18,1.88,3.6,4.64a5.58,5.58,0,0,1-5.57,4.65m.37-1.75c1.61,0,2.19-1.5,2.49-2.9s.35-2.9-1.26-2.9-2.19,1.5-2.48,2.9S173,28.6,174.62,28.6Z" transform="translate(0 0)"/><path class="cls-3" d="M184.51,22.33l0,.05a3.76,3.76,0,0,1,3-1.32c.88,0,2.43.64,2.47,1.92a5.76,5.76,0,0,1-.12,1.39l-1.21,5.72H186l1.12-5.28c.18-.94.14-2-1.15-2a2.33,2.33,0,0,0-2,2l-1.12,5.28h-2.62l1.86-8.77h2.61l-.22,1" transform="translate(0 0)"/><path class="cls-3" d="M3.09,43.87c-.24,1.14-.31,2.21,1,2.21A1.85,1.85,0,0,0,6,44.94H8.33c-.69,2.17-2.53,2.88-4.58,2.88-3,0-3.85-1.69-3.22-4.63.56-2.63,2.52-4.66,5.2-4.66,1.64,0,2.89.56,3.29,2.09a4.34,4.34,0,0,1,.1,1.58,12.94,12.94,0,0,1-.28,1.67H3.09M6.5,42.13c.2-1,.13-1.86-1.14-1.86s-1.66.89-1.9,1.86Z" transform="translate(0 0)"/><path class="cls-3" d="M11.7,38.79l.37-1.73,2.82-.94-.57,2.67h2l-.38,1.75H14l-.87,4.07c-.24,1.15-.13,1.47.78,1.47.27,0,.56,0,.85-.06l-.33,1.54a10.6,10.6,0,0,1-2.12.26c-2,0-2.25-1.06-1.85-3l.92-4.31H9.56l.37-1.75H11.7" transform="translate(0 0)"/><polyline class="cls-3" points="22.35 34.95 30.81 34.95 30.36 37.04 24.62 37.04 23.99 40 29.37 40 28.92 42.09 23.54 42.09 22.83 45.47 28.77 45.47 28.32 47.56 19.67 47.56 22.35 34.95"/><polyline class="cls-3" points="38.31 47.56 35.26 47.56 34.16 44.33 31.68 47.56 28.97 47.56 32.93 42.83 30.95 38.79 34.01 38.79 35.07 41.62 37.4 38.79 40.09 38.79 36.32 43.04 38.31 47.56"/><path class="cls-3" d="M43.14,39.8h0a3.77,3.77,0,0,1,2.61-1.27c2.73,0,3.62,2.29,3.12,4.64s-2.19,4.65-4.76,4.65a2.25,2.25,0,0,1-2.36-1.5h0l-1,4.6H38.16l2.21-10.38c.12-.58.19-1.17.28-1.75h2.66l-.17,1m.56,6.28c1.67,0,2.22-1.56,2.5-2.91s.41-2.9-1.27-2.9c-1.41,0-2.25,1.7-2.5,2.9S42.29,46.08,43.7,46.08Z" transform="translate(0 0)"/><path class="cls-3" d="M53.44,47.82c-2.86,0-4.17-1.88-3.59-4.65a5.56,5.56,0,0,1,5.57-4.64c2.87,0,4.17,1.88,3.59,4.64a5.56,5.56,0,0,1-5.57,4.65m.37-1.74c1.61,0,2.19-1.51,2.49-2.91s.36-2.9-1.25-2.9-2.19,1.51-2.49,2.9S52.21,46.08,53.81,46.08Z" transform="translate(0 0)"/><path class="cls-3" d="M63.49,38.79l-.29,1.59h0a3.45,3.45,0,0,1,3.34-1.69L66.09,41H65a2.4,2.4,0,0,0-1.42.64,3.88,3.88,0,0,0-.68,1.56l-.92,4.35H59.33l1.48-7c.08-.37.18-1.1.28-1.75h2.4" transform="translate(0 0)"/><path class="cls-3" d="M68.31,38.79l.37-1.73,2.82-.94-.57,2.67h2l-.37,1.75h-2l-.87,4.07c-.24,1.15-.14,1.47.77,1.47.28,0,.57,0,.85-.06L71,47.56a10.6,10.6,0,0,1-2.12.26c-2.05,0-2.25-1.06-1.85-3l.92-4.31H66.17l.37-1.75h1.77" transform="translate(0 0)"/><path class="cls-3" d="M73.39,41.27A3.1,3.1,0,0,1,75,39.09a5.89,5.89,0,0,1,2.71-.56c1.76,0,3.6.64,3,3.28l-1,4.79a6.76,6.76,0,0,0-.08,1H77.33a8.68,8.68,0,0,1,.16-1.17h0a3.64,3.64,0,0,1-3,1.43c-1.64,0-2.67-.94-2.3-2.65a4,4,0,0,1,2.46-2.78,9,9,0,0,1,3.53-.47l.17-.82a.89.89,0,0,0-1-1.09,1.53,1.53,0,0,0-1.43,1.26H73.39m1.36,3.55a1,1,0,0,0,1,1.26c1.45,0,1.84-1.61,2.06-2.64C76.92,43.42,75.05,43.4,74.75,44.82Z" transform="translate(0 0)"/><path class="cls-3" d="M83.77,38.79l.37-1.73L87,36.12l-.57,2.67h2L88,40.54H86l-.87,4.07c-.24,1.15-.13,1.47.78,1.47.28,0,.57,0,.85-.06l-.33,1.54a10.6,10.6,0,0,1-2.12.26c-2,0-2.25-1.06-1.85-3l.92-4.31H81.63L82,38.79h1.76" transform="translate(0 0)"/><path class="cls-3" d="M92,38.79l-1.86,8.77H87.52l1.86-8.77H92M92.91,35l-.48,2.25h-2.8L90.11,35Z" transform="translate(0 0)"/><path class="cls-3" d="M96,47.82c-2.86,0-4.18-1.88-3.59-4.65A5.56,5.56,0,0,1,98,38.53c2.86,0,4.17,1.88,3.59,4.64A5.57,5.57,0,0,1,96,47.82m.37-1.74c1.61,0,2.19-1.51,2.49-2.91s.35-2.9-1.25-2.9-2.19,1.51-2.49,2.9S94.79,46.08,96.39,46.08Z" transform="translate(0 0)"/><path class="cls-3" d="M106.29,39.8l0,.06a3.75,3.75,0,0,1,3-1.33c.88,0,2.43.64,2.48,1.92a6.49,6.49,0,0,1-.12,1.4l-1.22,5.71H107.8l1.12-5.28c.18-.94.15-2-1.15-2a2.32,2.32,0,0,0-2,2l-1.12,5.28H102l1.87-8.77h2.6l-.21,1" transform="translate(0 0)"/></g></g></g></svg>