<?xml version="1.0" encoding="UTF-8"?>
<svg id="Calque_2" data-name="Calque 2" xmlns="http://www.w3.org/2000/svg" width="168.1" height="157.4" xmlns:xlink="http://www.w3.org/1999/xlink" viewBox="0 0 168.1 157.4">
  <defs>
    <style>
      .cls-1 {
        fill: url(#Dégradé_sans_nom_247-5);
      }

      .cls-2 {
        fill: url(#Dégradé_sans_nom_247-7);
      }

      .cls-3 {
        fill: url(#Dégradé_sans_nom_247-6);
      }

      .cls-4 {
        fill: url(#Dégradé_sans_nom_247-2);
      }

      .cls-5 {
        fill: url(#Dégradé_sans_nom_247-4);
      }

      .cls-6 {
        fill: url(#Dégradé_sans_nom_247-8);
      }

      .cls-7 {
        fill: url(#Dégradé_sans_nom_299-2);
      }

      .cls-8 {
        fill: url(#Dégradé_sans_nom_247);
      }

      .cls-9 {
        fill: url(#Dégradé_sans_nom_247-3);
      }

      .cls-10 {
        fill: url(#Dégradé_sans_nom_299);
      }

      .cls-11 {
        fill: url(#Dégradé_sans_nom_299-3);
      }
    </style>
    <linearGradient id="Dégradé_sans_nom_247" data-name="Dégradé sans nom 247" x1="0" y1="78.7" x2="153.27" y2="78.7" gradientUnits="userSpaceOnUse">
      <stop offset="0" stop-color="#e4ff1d"/>
      <stop offset=".34" stop-color="#96e313"/>
      <stop offset=".97" stop-color="#00af00"/>
    </linearGradient>
    <linearGradient id="Dégradé_sans_nom_299" data-name="Dégradé sans nom 299" x1="19.62" y1="84.59" x2="129.12" y2="84.59" gradientUnits="userSpaceOnUse">
      <stop offset="0" stop-color="#e4ff1d"/>
      <stop offset="0" stop-color="#96e313"/>
      <stop offset="0" stop-color="#00af00"/>
    </linearGradient>
    <linearGradient id="Dégradé_sans_nom_299-2" data-name="Dégradé sans nom 299" x1="122.31" y1="67.66" x2="176.48" y2="67.66" gradientTransform="translate(-14.13 60.57) rotate(21.22) scale(1 -1)" xlink:href="#Dégradé_sans_nom_299"/>
    <linearGradient id="Dégradé_sans_nom_299-3" data-name="Dégradé sans nom 299" x1="125.04" y1="136.24" x2="171.85" y2="136.24" gradientTransform="translate(155.33 208.4) rotate(-75.99) scale(1 -1)" xlink:href="#Dégradé_sans_nom_299"/>
    <linearGradient id="Dégradé_sans_nom_247-2" data-name="Dégradé sans nom 247" x1="136.5" y1="109.21" x2="136.66" y2="109.21" xlink:href="#Dégradé_sans_nom_247"/>
    <linearGradient id="Dégradé_sans_nom_247-3" data-name="Dégradé sans nom 247" x1="136.5" y1="109.21" x2="136.66" y2="109.21" xlink:href="#Dégradé_sans_nom_247"/>
    <linearGradient id="Dégradé_sans_nom_247-4" data-name="Dégradé sans nom 247" x1="28.88" y1="88.77" x2="155.67" y2="88.77" xlink:href="#Dégradé_sans_nom_247"/>
    <linearGradient id="Dégradé_sans_nom_247-5" data-name="Dégradé sans nom 247" x1="53.09" y1="115.29" x2="154.79" y2="115.29" xlink:href="#Dégradé_sans_nom_247"/>
    <linearGradient id="Dégradé_sans_nom_247-6" data-name="Dégradé sans nom 247" x1="36.18" y1="107.35" x2="155.57" y2="107.35" xlink:href="#Dégradé_sans_nom_247"/>
    <linearGradient id="Dégradé_sans_nom_247-7" data-name="Dégradé sans nom 247" x1="75.31" y1="117.43" x2="154.59" y2="117.43" xlink:href="#Dégradé_sans_nom_247"/>
    <linearGradient id="Dégradé_sans_nom_247-8" data-name="Dégradé sans nom 247" x1="99.03" y1="118.23" x2="154.99" y2="118.23" xlink:href="#Dégradé_sans_nom_247"/>
  </defs>
  <g id="Calque_1-2" data-name="Calque 1">
    <g>
      <path class="cls-8" d="m149.58,112.94c-13.49,27.92-42.9,46.35-75.76,44.31C30.45,154.56-2.54,117.21.15,73.83,2.85,30.45,40.19-2.54,83.58.15c32.85,2.04,59.75,23.96,69.69,53.32-9.73-24.98-33.27-43.35-61.79-45.12C52.34,5.92,18.64,35.68,16.21,74.82s27.33,72.83,66.47,75.26c28.52,1.77,54.16-13.56,66.9-37.15Z"/>
      <path class="cls-10" d="m129.12,129.64c-11.58,9.71-26.52,15.56-42.82,15.56-36.83,0-66.68-29.86-66.68-66.68,0-2.08-.23-10.17,3.01-19.88,7.99-23.91,29-34.92,29.24-34.66.22.24-17.18,10.22-24.3,31.13-.81,2.39-3,10.28-3,19.83,0,36.77,29.81,66.58,66.59,66.58,14.11,0,27.2-4.39,37.97-11.88Z"/>
      <path class="cls-7" d="m153.68,69.11c-9.84-6.68-14.05-7.22-18.02-11.24-4.22-4.26-8.32-12.55-5.72-30.41,2.95,2.28,6.1,4.98,9.29,8.18,5.27,5.27,9.3,10.51,12.34,15.1-2.7-5.24-6.24-11.11-10.89-17.15-2.36-3.06-4.73-5.82-7.03-8.28,3.68.34,11.27,1.57,18.35,7.13,5.59,4.39,8.22,9.4,10.04,12.97,6.86,13.44,6.49,26.99,5.55,34.74-3.08-2.84-7.75-6.86-13.91-11.03Z"/>
      <path class="cls-11" d="m76.33,26.19c-7.03,7.83-7.87,12.57-12.26,16.7-4.69,4.41-13.32,8.48-30.68,6.22,1.03-2.49,2.61-5.57,5.03-8.75,4.14-5.41,8.85-8.61,11.98-10.37-3.73,1.64-9.04,4.57-13.94,9.78-2.1,2.23-3.72,4.45-4.98,6.45-.66-.55-1.31-1.09-1.97-1.64,1.87-2.75,4.53-6.25,8.11-9.92,6.47-6.64,12.53-10.33,13.95-11.18,8.9-5.3,16.84-7.13,19.52-7.68,7.25-1.49,13.6-1.42,18.34-.96-3.42,2.29-8.27,5.95-13.11,11.35Z"/>
      <g>
        <path class="cls-4" d="m136.66,109.07h0c-.05.09-.1.18-.16.28.05-.09.11-.18.16-.28Z"/>
        <path class="cls-9" d="m136.66,109.07h0c-.05.09-.1.18-.16.28.05-.09.11-.18.16-.28Z"/>
        <path class="cls-5" d="m28.88,79.42c.05,3.15.41,7.29,1.67,11.96,1.17,4.36,2.77,7.91,4.21,10.57,24.38-8.56,56.96-16.2,95.17-14.74,9.08.35,17.67,1.18,25.74,2.33-4.54-1.62-9.22-3.15-14.07-4.55-41.55-12-80.69-10.91-112.72-5.58Z"/>
        <path class="cls-1" d="m53.09,126.37c2.07,1.66,4.66,3.47,7.79,5.15,4.19,2.26,8.1,3.61,11.24,4.45,14.42-11.22,33.65-23.56,57.89-33.14,8.66-3.42,16.97-6.11,24.78-8.22-12.86.85-28.46,2.98-45.72,7.76-23.6,6.54-42.4,15.88-55.99,24Z"/>
        <path class="cls-3" d="m36.18,104.93c1.57,2.97,3.62,6.33,6.26,9.83,3.12,4.12,6.29,7.41,9.09,9.97,12.01-7.99,29.84-17.93,53.08-24.74,20-5.86,37.71-7.56,50.97-7.83-14.64-1.92-32.85-3.03-53.61-1.37-26.95,2.15-49.31,8.25-65.79,14.14Z"/>
        <path class="cls-2" d="m154.59,96.82c-9.1,2.65-19.03,6.12-29.48,10.7-20.57,9.02-37.12,19.72-49.8,29.4,2.95.48,6.28.86,9.92,1.02,3.97.17,7.59.05,10.78-.21,7.81-7.2,17.19-14.99,28.25-22.68,10.77-7.5,21.06-13.47,30.33-18.23Z"/>
      </g>
    </g>
    <path class="cls-6" d="m154.99,98.72c-10.49,5.8-21.84,12.83-33.59,21.33-8.22,5.95-15.67,11.91-22.37,17.71,3.76-.51,8.04-1.37,12.65-2.84,9.41-2.99,16.65-7.36,21.65-11.02,3.06-4,6.38-8.13,9.98-12.33,3.95-4.62,7.86-8.89,11.67-12.85Z"/>
  </g>
</svg>